<svg width="31" height="31" viewBox="0 0 31 31" fill="none" xmlns="http://www.w3.org/2000/svg">
<path d="M15.8001 4.25L19.3618 11.5983L27.4585 12.7442L21.6201 18.6183L22.9668 26.75L15.8001 23.045L8.63347 26.75L9.97681 18.6167L4.14347 12.7425L12.2401 11.5967L15.8001 4.25ZM15.8001 2.58333C15.4378 2.58164 15.0823 2.68185 14.7742 2.87252C14.4661 3.0632 14.2178 3.33665 14.0576 3.66167L11.0418 9.9225L4.10347 10.9542C3.75718 11.004 3.43115 11.1477 3.16071 11.3697C2.89028 11.5917 2.68575 11.8834 2.56931 12.2133C2.45669 12.5405 2.43896 12.8928 2.51815 13.2296C2.59733 13.5664 2.77021 13.874 3.01681 14.1167L8.10014 19.195L6.92097 26.2367C6.86446 26.5858 6.90887 26.9439 7.04897 27.2687C7.18908 27.5935 7.41904 27.8715 7.71181 28.07C8.00937 28.2729 8.35688 28.3904 8.71655 28.4097C9.07622 28.4289 9.43428 28.3492 9.75181 28.1792L15.8001 25.03L21.8493 28.1825C22.1671 28.3525 22.5255 28.4322 22.8854 28.413C23.2453 28.3937 23.5931 28.2763 23.891 28.0733C24.1833 27.8745 24.4127 27.5964 24.5524 27.2716C24.692 26.9468 24.7361 26.5889 24.6793 26.24L23.4993 19.1983L28.5826 14.12C28.8291 13.8772 29.0018 13.5696 29.0808 13.2328C29.1599 12.896 29.142 12.5437 29.0293 12.2167C28.9129 11.8868 28.7083 11.595 28.4379 11.373C28.1675 11.1511 27.8414 11.0074 27.4951 10.9575L20.5576 9.92583L17.541 3.665C17.3817 3.33936 17.134 3.06518 16.8261 2.87387C16.5182 2.68256 16.1626 2.58187 15.8001 2.58333Z" fill="#EDA957"/>
</svg>
