<svg width="21" height="25" viewBox="0 0 21 25" fill="none" xmlns="http://www.w3.org/2000/svg">
<g id="SVG">
<g id="Group">
<path id="Vector" d="M3.78491 7.5V14.375C3.78491 14.4687 3.81616 14.5625 3.84741 14.625C3.94116 14.8125 5.87866 18.9375 10.4099 20.875H10.4724C10.5349 20.875 10.5662 20.9062 10.6287 20.9062C10.6912 20.9062 10.7224 20.9062 10.7849 20.875H10.8474C15.3787 18.9375 17.3474 14.8125 17.4099 14.625C17.4412 14.5312 17.4724 14.4687 17.4724 14.375V7.5C17.4724 7.21875 17.2849 6.96875 17.0037 6.90625C14.6287 6.3125 10.9724 3.90625 10.9412 3.875C10.9099 3.84375 10.8787 3.84375 10.8162 3.8125C10.7849 3.8125 10.7849 3.8125 10.7537 3.78125H10.4724C10.4412 3.78125 10.4099 3.8125 10.3787 3.8125C10.3474 3.84375 10.3162 3.84375 10.2537 3.875C10.1912 3.90625 6.56616 6.3125 4.19116 6.90625C3.97241 6.96875 3.78491 7.21875 3.78491 7.5ZM5.03491 7.96875C7.12866 7.3125 9.72241 5.71875 10.6599 5.125C11.5974 5.71875 14.1912 7.3125 16.2849 7.96875V14.2187C15.9412 14.875 14.1912 18 10.6599 19.625C7.12866 18 5.37866 14.875 5.03491 14.2187V7.96875Z" fill="#6C7FD8"/>
<path id="Vector_2" d="M9.59741 14.5C9.72241 14.625 9.87866 14.6875 10.0349 14.6875C10.1912 14.6875 10.3474 14.625 10.4724 14.5L13.5662 11.4062C13.8162 11.1562 13.8162 10.7812 13.5662 10.5312C13.3162 10.2813 12.9412 10.2813 12.6912 10.5312L10.0349 13.1875L8.62866 11.7812C8.37866 11.5312 8.00366 11.5312 7.75366 11.7812C7.50366 12.0312 7.50366 12.4062 7.75366 12.6562L9.59741 14.5Z" fill="#6C7FD8"/>
</g>
</g>
</svg>
