<svg width="31" height="31" viewBox="0 0 31 31" fill="none" xmlns="http://www.w3.org/2000/svg">
<path d="M10.9092 24.8581C9.87424 24.8581 9.03518 25.6972 9.03518 26.7322C9.03518 27.7672 9.87424 28.6062 10.9092 28.6062C11.9442 28.6062 12.7833 27.7672 12.7833 26.7322C12.7833 25.6972 11.9442 24.8581 10.9092 24.8581ZM24.0267 24.8581C22.9917 24.8581 22.1527 25.6972 22.1527 26.7322C22.1527 27.7672 22.9917 28.6062 24.0267 28.6062C25.0617 28.6062 25.9008 27.7672 25.9008 26.7322C25.9008 25.6972 25.0617 24.8581 24.0267 24.8581ZM25.8858 23.9216H10.6664C9.31643 23.9216 8.12955 22.8538 7.96455 21.4897L6.37549 10.3025L5.4708 5.07406C5.41455 4.6175 4.9983 4.24531 4.59236 4.24531H3.39893C2.88143 4.24531 2.46143 3.82531 2.46143 3.30875C2.46143 2.79125 2.88143 2.37125 3.39893 2.37125H4.59236C5.95924 2.37125 7.15924 3.43906 7.32518 4.80313L8.22705 10.0119L9.82268 21.2469C9.87518 21.6819 10.2689 22.0484 10.6655 22.0484H25.8849C26.4033 22.0484 26.8224 22.4675 26.8224 22.985C26.8224 23.5025 26.4033 23.9216 25.8858 23.9216ZM11.8374 20.1734C11.3508 20.1734 10.9402 19.7984 10.9036 19.3053C10.8652 18.7887 11.2533 18.3406 11.768 18.3031L24.4786 17.3666C24.9455 17.3637 25.3383 16.9972 25.3899 16.5809L26.8655 8.13687C26.903 7.82187 26.8158 7.47687 26.6274 7.26406C26.5064 7.12719 26.3545 7.05781 26.1774 7.05781H9.95674C9.43924 7.05781 9.01924 6.63781 9.01924 6.12125C9.01924 5.60375 9.43924 5.18469 9.95674 5.18469H26.1792C26.8955 5.18469 27.5527 5.48187 28.0317 6.02281C28.5792 6.64062 28.8305 7.51062 28.7208 8.4125L27.2442 16.8575C27.0849 18.1709 25.8989 19.2388 24.5489 19.2388L11.9067 20.1706C11.8833 20.1725 11.8599 20.1734 11.8374 20.1734Z" fill="#EDA957"/>
</svg>
