<svg width="31" height="31" viewBox="0 0 31 31" fill="none" xmlns="http://www.w3.org/2000/svg">
<path d="M15.1437 19.4916C10.1583 19.4916 6.11683 15.4952 6.11683 10.5654C6.11683 5.6356 10.1583 1.63921 15.1437 1.63921C20.1291 1.63921 24.1706 5.63563 24.1706 10.5654C24.1706 15.4952 20.1291 19.4916 15.1437 19.4916ZM15.1437 3.43514C11.1678 3.43514 7.93318 6.63371 7.93318 10.5654C7.93318 14.4971 11.1678 17.6957 15.1437 17.6957C19.1199 17.6957 22.3544 14.4971 22.3544 10.5654C22.3544 6.63371 19.1199 3.43514 15.1437 3.43514ZM27.5478 29.3608H26.7812C26.4986 29.3608 26.2604 29.1574 26.2133 28.8818C26.1358 28.4299 26.0294 27.9876 25.8869 27.5649C25.1613 24.996 23.504 22.7564 21.2257 21.2876C19.3732 22.3189 17.293 22.8591 15.1437 22.8591C12.9888 22.8591 10.9036 22.316 9.04751 21.2793C6.76236 22.748 5.09976 24.9906 4.37279 27.5649C4.37279 27.5649 4.22944 28.0973 4.02723 28.9243C3.96465 29.1799 3.73324 29.3608 3.46731 29.3608H2.7118C2.43597 29.3608 2.22275 29.1202 2.25858 28.8495C2.81624 24.6431 5.43541 21.0803 9.08027 19.1801C10.7995 20.3658 12.8887 21.063 15.1437 21.063C17.3937 21.063 19.4787 20.3691 21.196 19.1882C24.8324 21.0905 27.4445 24.6492 28.001 28.8495C28.0368 29.1201 27.8237 29.3608 27.5478 29.3608Z" fill="#EDA957"/>
</svg>
