<svg width="20" height="26" viewBox="0 0 20 26" fill="none" xmlns="http://www.w3.org/2000/svg">
<g id="SVG">
<path id="Vector" d="M9.5029 21.2954C9.0987 21.2954 8.72753 21.1137 8.48382 20.7965L4.13286 15.1267C4.0671 15.0516 4.02378 14.9786 3.99635 14.9325C3.22128 13.8458 2.80835 12.5614 2.80835 11.2241C2.82456 7.62801 5.83415 4.70463 9.51754 4.70463C13.2087 4.70463 16.2118 7.62924 16.2118 11.2241C16.1962 12.5646 15.7833 13.8398 15.0166 14.9205C14.9801 14.9816 14.9365 15.054 14.8729 15.1266L10.522 20.7965C10.2783 21.1137 9.90711 21.2954 9.5029 21.2954ZM5.08059 14.2724C5.09801 14.2902 5.11435 14.309 5.12952 14.3288L9.49667 20.0196L13.8763 14.3288C13.8844 14.3182 13.8928 14.3079 13.9015 14.2978L13.9483 14.2216C13.9536 14.2132 13.9592 14.205 13.9648 14.197C14.5872 13.3257 14.9228 12.2952 14.9353 11.2168C14.9353 8.33297 12.505 5.98089 9.51756 5.98089C6.53507 5.98089 4.09796 8.33424 4.08489 11.2269C4.08489 12.2938 4.41555 13.3218 5.04072 14.1969L5.09464 14.2819C5.10241 14.2956 5.09118 14.2825 5.08059 14.2724ZM13.9243 14.2732C13.924 14.2735 13.9236 14.2737 13.9236 14.274C13.9237 14.2737 13.924 14.2735 13.9243 14.2732ZM13.9252 14.2724C13.9249 14.2726 13.9246 14.2729 13.9243 14.2732C13.9246 14.2729 13.9249 14.2726 13.9252 14.2724Z" fill="#6C7FD8"/>
<path id="Vector_2" d="M9.51 14.2109C7.83831 14.2109 6.47827 12.8512 6.47827 11.1798C6.47827 9.50854 7.83831 8.14882 9.51 8.14882C11.1817 8.14882 12.5417 9.50854 12.5417 11.1798C12.5417 12.8512 11.1817 14.2109 9.51 14.2109ZM9.51 9.74409C8.71811 9.74409 8.07392 10.3881 8.07392 11.1798C8.07392 11.9716 8.71809 12.6156 9.51 12.6156C10.3019 12.6156 10.9461 11.9716 10.9461 11.1798C10.9461 10.3881 10.3019 9.74409 9.51 9.74409Z" fill="#6C7FD8"/>
</g>
</svg>
