<svg width="25" height="26" viewBox="0 0 25 26" fill="none" xmlns="http://www.w3.org/2000/svg">
<g id="SVG">
<path id="Vector" d="M9.375 23.1562H4.6875C4.0659 23.1562 3.46976 22.9093 3.03022 22.4698C2.59068 22.0302 2.34375 21.4341 2.34375 20.8125V16.125C2.34375 15.5034 2.59068 14.9073 3.03022 14.4677C3.46976 14.0282 4.0659 13.7812 4.6875 13.7812H9.375C9.9966 13.7812 10.5927 14.0282 11.0323 14.4677C11.4718 14.9073 11.7188 15.5034 11.7188 16.125V20.8125C11.7188 21.4341 11.4718 22.0302 11.0323 22.4698C10.5927 22.9093 9.9966 23.1562 9.375 23.1562ZM4.6875 15.3438C4.4803 15.3438 4.28159 15.4261 4.13507 15.5726C3.98856 15.7191 3.90625 15.9178 3.90625 16.125V20.8125C3.90625 21.0197 3.98856 21.2184 4.13507 21.3649C4.28159 21.5114 4.4803 21.5938 4.6875 21.5938H9.375C9.5822 21.5938 9.78091 21.5114 9.92743 21.3649C10.0739 21.2184 10.1562 21.0197 10.1562 20.8125V16.125C10.1562 15.9178 10.0739 15.7191 9.92743 15.5726C9.78091 15.4261 9.5822 15.3438 9.375 15.3438H4.6875ZM19.1406 23.1562H15.625C15.0034 23.1562 14.4073 22.9093 13.9677 22.4698C13.5282 22.0302 13.2812 21.4341 13.2812 20.8125V16.125C13.2812 15.5034 13.5282 14.9073 13.9677 14.4677C14.4073 14.0282 15.0034 13.7812 15.625 13.7812H20.3125C20.9341 13.7812 21.5302 14.0282 21.9698 14.4677C22.4093 14.9073 22.6562 15.5034 22.6562 16.125V19.6406C22.6562 19.8478 22.5739 20.0465 22.4274 20.1931C22.2809 20.3396 22.0822 20.4219 21.875 20.4219C21.6678 20.4219 21.4691 20.3396 21.3226 20.1931C21.1761 20.0465 21.0938 19.8478 21.0938 19.6406V16.125C21.0938 15.9178 21.0114 15.7191 20.8649 15.5726C20.7184 15.4261 20.5197 15.3438 20.3125 15.3438H15.625C15.4178 15.3438 15.2191 15.4261 15.0726 15.5726C14.9261 15.7191 14.8438 15.9178 14.8438 16.125V20.8125C14.8438 21.0197 14.9261 21.2184 15.0726 21.3649C15.2191 21.5114 15.4178 21.5938 15.625 21.5938H19.1406C19.3478 21.5938 19.5465 21.6761 19.6931 21.8226C19.8396 21.9691 19.9219 22.1678 19.9219 22.375C19.9219 22.5822 19.8396 22.7809 19.6931 22.9274C19.5465 23.0739 19.3478 23.1562 19.1406 23.1562ZM9.375 12.2188H4.6875C4.0659 12.2188 3.46976 11.9718 3.03022 11.5323C2.59068 11.0927 2.34375 10.4966 2.34375 9.875V5.1875C2.34375 4.5659 2.59068 3.96976 3.03022 3.53022C3.46976 3.09068 4.0659 2.84375 4.6875 2.84375H9.375C9.9966 2.84375 10.5927 3.09068 11.0323 3.53022C11.4718 3.96976 11.7188 4.5659 11.7188 5.1875V9.875C11.7188 10.4966 11.4718 11.0927 11.0323 11.5323C10.5927 11.9718 9.9966 12.2188 9.375 12.2188ZM4.6875 4.40625C4.4803 4.40625 4.28159 4.48856 4.13507 4.63507C3.98856 4.78159 3.90625 4.9803 3.90625 5.1875V9.875C3.90625 10.0822 3.98856 10.2809 4.13507 10.4274C4.28159 10.5739 4.4803 10.6562 4.6875 10.6562H9.375C9.5822 10.6562 9.78091 10.5739 9.92743 10.4274C10.0739 10.2809 10.1562 10.0822 10.1562 9.875V5.1875C10.1562 4.9803 10.0739 4.78159 9.92743 4.63507C9.78091 4.48856 9.5822 4.40625 9.375 4.40625H4.6875ZM20.3125 12.2188H15.625C15.0034 12.2188 14.4073 11.9718 13.9677 11.5323C13.5282 11.0927 13.2812 10.4966 13.2812 9.875V5.1875C13.2812 4.5659 13.5282 3.96976 13.9677 3.53022C14.4073 3.09068 15.0034 2.84375 15.625 2.84375H20.3125C20.9341 2.84375 21.5302 3.09068 21.9698 3.53022C22.4093 3.96976 22.6562 4.5659 22.6562 5.1875V9.875C22.6562 10.4966 22.4093 11.0927 21.9698 11.5323C21.5302 11.9718 20.9341 12.2188 20.3125 12.2188ZM15.625 4.40625C15.4178 4.40625 15.2191 4.48856 15.0726 4.63507C14.9261 4.78159 14.8438 4.9803 14.8438 5.1875V9.875C14.8438 10.0822 14.9261 10.2809 15.0726 10.4274C15.2191 10.5739 15.4178 10.6562 15.625 10.6562H20.3125C20.5197 10.6562 20.7184 10.5739 20.8649 10.4274C21.0114 10.2809 21.0938 10.0822 21.0938 9.875V5.1875C21.0938 4.9803 21.0114 4.78159 20.8649 4.63507C20.7184 4.48856 20.5197 4.40625 20.3125 4.40625H15.625Z" fill="#EDA957"/>
</g>
</svg>
